0
SECTION
2
HEADER
9
$INSUNITS
70
4
9
$ACADVER
1
AC1014
9
$HANDSEED
5
FFFF
0
ENDSEC
0
SECTION
2
TABLES
0
TABLE
2
VPORT
5
8
100
AcDbSymbolTable
0
ENDTAB
0
TABLE
2
LTYPE
5
5
100
AcDbSymbolTable
0
LTYPE
5
14
100
AcDbSymbolTableRecord
100
AcDbLinetypeTableRecord
2
BYBLOCK
70
0
0
LTYPE
5
15
100
AcDbSymbolTableRecord
100
AcDbLinetypeTableRecord
2
BYLAYER
70
0
0
ENDTAB
0
TABLE
2
LAYER
5
2
100
AcDbSymbolTable
70
2
0
LAYER
5
50
100
AcDbSymbolTableRecord
100
AcDbLayerTableRecord
2
0
70
0
6
CONTINUOUS
0
ENDTAB
0
TABLE
2
STYLE
5
3
100
AcDbSymbolTable
70
1
0
STYLE
5
11
100
AcDbSymbolTableRecord
100
AcDbTextStyleTableRecord
2
STANDARD
70
0
0
ENDTAB
0
TABLE
2
VIEW
5
6
100
AcDbSymbolTable
70
0
0
ENDTAB
0
TABLE
2
UCS
5
7
100
AcDbSymbolTable
70
0
0
ENDTAB
0
TABLE
2
APPID
5
9
100
AcDbSymbolTable
70
2
0
APPID
5
12
100
AcDbSymbolTableRecord
100
AcDbRegAppTableRecord
2
ACAD
70
0
0
ENDTAB
0
TABLE
2
DIMSTYLE
5
A
100
AcDbSymbolTable
70
1
0
ENDTAB
0
TABLE
2
BLOCK_RECORD
5
1
100
AcDbSymbolTable
70
1
0
BLOCK_RECORD
5
1F
100
AcDbSymbolTableRecord
100
AcDbBlockTableRecord
2
*MODEL_SPACE
0
BLOCK_RECORD
5
1B
100
AcDbSymbolTableRecord
100
AcDbBlockTableRecord
2
*PAPER_SPACE
0
ENDTAB
0
ENDSEC
0
SECTION
2
BLOCKS
0
BLOCK
5
20
100
AcDbEntity
100
AcDbBlockBegin
2
*MODEL_SPACE
0
ENDBLK
5
21
100
AcDbEntity
100
AcDbBlockEnd
0
BLOCK
5
1C
100
AcDbEntity
100
AcDbBlockBegin
2
*PAPER_SPACE
0
ENDBLK
5
1D
100
AcDbEntity
100
AcDbBlockEnd
0
ENDSEC
0
SECTION
2
ENTITIES
0
LINE
5
100
100
AcDbEntity
8
0
100
AcDbLine
10
50.000000000000028
20
109.99999999999999
30
0
11
49.999999999999972
21
-10.000000000000004
31
0
0
LWPOLYLINE
5
101
100
AcDbEntity
8
0
100
AcDbPolyline
90
30
70
1
43
0.0
10
48.399999999999977
20
-10.000000000000002
10
48.399999999999977
20
9.9999999999999964
10
51.59999999999998
20
9.9999999999999964
10
51.59999999999998
20
-10.000000000000007
10
84.641016151377514
20
-10.000000000000018
10
101.16152422706631
20
18.614359353944884
10
83.841016151377531
20
28.614359353944884
10
85.441016151377539
20
31.385640646055091
10
102.76152422706632
20
21.385640646055087
10
119.28203230275508
20
49.999999999999957
10
102.76152422706636
20
78.614359353944863
10
85.441016151377596
20
68.614359353944877
10
83.841016151377588
20
71.385640646055066
10
101.16152422706635
20
81.385640646055066
10
84.641016151377585
20
109.99999999999997
10
51.600000000000023
20
110
10
51.600000000000023
20
90
10
48.40000000000002
20
90.000000000000014
10
48.40000000000002
20
110.00000000000001
10
15.358983848622461
20
110
10
-1.1615242270662929
20
81.385640646055123
10
16.158983848622469
20
71.385640646055123
10
14.558983848622464
20
68.61435935394492
10
-2.7615242270663032
20
78.614359353944934
10
-19.282032302755098
20
50.000000000000014
10
-2.761524227066352
20
21.385640646055162
10
14.558983848622429
20
31.385640646055144
10
16.158983848622427
20
28.614359353944945
10
-1.1615242270663595
20
18.614359353944955
10
15.358983848622429
20
-9.9999999999999911
0
ENDSEC
0
SECTION
2
OBJECTS
0
DICTIONARY
5
C
100
AcDbDictionary
3
ACAD_GROUP
350
D
3
ACAD_MLINESTYLE
350
17
0
DICTIONARY
5
D
100
AcDbDictionary
0
DICTIONARY
5
1A
330
C
100
AcDbDictionary
0
DICTIONARY
5
17
100
AcDbDictionary
0
ENDSEC
0
EOF
