  0
SECTION
  2
HEADER
  9
$ACADVER
  1
AC1014
  9
$HANDSEED
  5
FFFF
  9
$INSUNITS
 70
     4
  9
$MEASUREMENT
 70
     1
  0
ENDSEC
  0
SECTION
  2
TABLES
  0
TABLE
  2
VPORT
  5
8
330
0
100
AcDbSymbolTable
 70
     4
  0
VPORT
  5
2E
330
8
100
AcDbSymbolTableRecord
100
AcDbViewportTableRecord
  2
*ACTIVE
 70
     0
 10
0.0
 20
0.0
 11
1.0
 21
1.0
 12
210.0
 22
148.5
 13
0.0
 23
0.0
 14
10.0
 24
10.0
 15
10.0
 25
10.0
 16
0.0
 26
0.0
 36
1.0
 17
0.0
 27
0.0
 37
0.0
 40
341.0
 41
1.24
 42
50.0
 43
0.0
 44
0.0
 50
0.0
 51
0.0
 71
     0
 72
   100
 73
     1
 74
     3
 75
     0
 76
     0
 77
     0
 78
     0
  0
ENDTAB
  0
TABLE
  2
LTYPE
  5
5
330
0
100
AcDbSymbolTable
 70
     1
  0
LTYPE
  5
14
330
5
100
AcDbSymbolTableRecord
100
AcDbLinetypeTableRecord
  2
BYBLOCK
 70
     0
  3

 72
    65
 73
     0
 40
0.0
  0
LTYPE
  5
15
330
5
100
AcDbSymbolTableRecord
100
AcDbLinetypeTableRecord
  2
BYLAYER
 70
     0
  3

 72
    65
 73
     0
 40
0.0
  0
LTYPE
  5
16
330
5
100
AcDbSymbolTableRecord
100
AcDbLinetypeTableRecord
  2
CONTINUOUS
 70
     0
  3
Solid line
 72
    65
 73
     0
 40
0.0
  0
ENDTAB
  0
TABLE
  2
LAYER
  5
2
100
AcDbSymbolTable
 70
2
  0
LAYER
  5
50
100
AcDbSymbolTableRecord
100
AcDbLayerTableRecord
  2
0
 70
0
  6
CONTINUOUS
  0
LAYER
  5
51
100
AcDbSymbolTableRecord
100
AcDbLayerTableRecord
  2
Capa_1
 70
0
  6
CONTINUOUS
  0
ENDTAB
  0
TABLE
  2
STYLE
  5
3
330
0
100
AcDbSymbolTable
 70
     1
  0
STYLE
  5
11
330
3
100
AcDbSymbolTableRecord
100
AcDbTextStyleTableRecord
  2
STANDARD
 70
     0
 40
0.0
 41
1.0
 50
0.0
 71
     0
 42
2.5
  3
txt
  4

  0
ENDTAB
  0
TABLE
  2
VIEW
  5
6
330
0
100
AcDbSymbolTable
 70
     0
  0
ENDTAB
  0
TABLE
  2
UCS
  5
7
330
0
100
AcDbSymbolTable
 70
     0
  0
ENDTAB
  0
TABLE
  2
APPID
  5
9
330
0
100
AcDbSymbolTable
 70
     2
  0
APPID
  5
12
330
9
100
AcDbSymbolTableRecord
100
AcDbRegAppTableRecord
  2
ACAD
 70
     0
  0
ENDTAB
  0
TABLE
  2
DIMSTYLE
  5
A
330
0
100
AcDbSymbolTable
 70
     1
  0
DIMSTYLE
105
27
330
A
100
AcDbSymbolTableRecord
100
AcDbDimStyleTableRecord
  2
ISO-25
 70
     0
  3

  4

  5

  6

  7

 40
1.0
 41
2.5
 42
0.625
 43
3.75
 44
1.25
 45
0.0
 46
0.0
 47
0.0
 48
0.0
140
2.5
141
2.5
142
0.0
143
0.03937007874016
144
1.0
145
0.0
146
1.0
147
0.625
 71
     0
 72
     0
 73
     0
 74
     0
 75
     0
 76
     0
 77
     1
 78
     8
170
     0
171
     3
172
     1
173
     0
174
     0
175
     0
176
     0
177
     0
178
     0
270
     2
271
     2
272
     2
273
     2
274
     3
340
11
275
     0
280
     0
281
     0
282
     0
283
     0
284
     8
285
     0
286
     0
287
     3
288
     0
  0
ENDTAB
  0
TABLE
  2
BLOCK_RECORD
  5
1
330
0
100
AcDbSymbolTable
 70
     1
  0
BLOCK_RECORD
  5
1F
330
1
100
AcDbSymbolTableRecord
100
AcDbBlockTableRecord
  2
*MODEL_SPACE
  0
BLOCK_RECORD
  5
1B
330
1
100
AcDbSymbolTableRecord
100
AcDbBlockTableRecord
  2
*PAPER_SPACE
  0
ENDTAB
  0
ENDSEC
  0
SECTION
  2
BLOCKS
  0
BLOCK
  5
20
330
1F
100
AcDbEntity
  8
0
100
AcDbBlockBegin
  2
*MODEL_SPACE
 70
     0
 10
0.0
 20
0.0
 30
0.0
  3
*MODEL_SPACE
  1

  0
ENDBLK
  5
21
330
1F
100
AcDbEntity
  8
0
100
AcDbBlockEnd
  0
BLOCK
  5
1C
330
1B
100
AcDbEntity
 67
     1
  8
0
100
AcDbBlockBegin
  2
*PAPER_SPACE
  1

  0
ENDBLK
  5
1D
330
1B
100
AcDbEntity
 67
     1
  8
0
100
AcDbBlockEnd
  0
ENDSEC
  0
SECTION
  2
ENTITIES
  0
SPLINE
  5
100
100
AcDbEntity
  8
Capa_1
 62
7
100
AcDbSpline
 70
8
 71
3
 72
8
 73
4
 74
0
 40
0
 40
0
 40
0
 40
0
 40
1
 40
1
 40
1
 40
1
 10
88.663150
 20
200.713308
 30
0.0
 10
84.958983
 20
196.903310
 30
0.0
 10
81.925094
 20
193.587200
 30
0.0
 10
81.925094
 20
193.340250
 30
0.0
  0
SPLINE
  5
101
100
AcDbEntity
  8
Capa_1
 62
7
100
AcDbSpline
 70
8
 71
3
 72
8
 73
4
 74
0
 40
0
 40
0
 40
0
 40
0
 40
1
 40
1
 40
1
 40
1
 10
81.925094
 20
193.340250
 30
0.0
 10
81.925094
 20
192.528860
 30
0.0
 10
82.771761
 20
192.317200
 30
0.0
 10
85.982039
 20
192.317200
 30
0.0
  0
SPLINE
  5
102
100
AcDbEntity
  8
Capa_1
 62
7
100
AcDbSpline
 70
8
 71
3
 72
8
 73
4
 74
0
 40
0
 40
0
 40
0
 40
0
 40
1
 40
1
 40
1
 40
1
 10
89.333428
 20
183.674140
 30
0.0
 10
89.545095
 20
174.008030
 30
0.0
 10
89.615650
 20
173.655250
 30
0.0
 10
92.367317
 20
170.868310
 30
0.0
  0
SPLINE
  5
103
100
AcDbEntity
  8
Capa_1
 62
7
100
AcDbSpline
 70
8
 71
3
 72
8
 73
4
 74
0
 40
0
 40
0
 40
0
 40
0
 40
1
 40
1
 40
1
 40
1
 10
92.367317
 20
170.868310
 30
0.0
 10
94.836762
 20
168.363580
 30
0.0
 10
95.965651
 20
167.975530
 30
0.0
 10
101.151480
 20
167.975530
 30
0.0
  0
LWPOLYLINE
  5
104
100
AcDbEntity
  8
Capa_1
 62
7
100
AcDbPolyline
 90
3
 70
0
 10
85.982039
 20
192.317200
 30
0.0
 10
89.157039
 20
192.317200
 30
0.0
 10
89.333428
 20
183.674140
 30
0.0
  0
SPLINE
  5
105
100
AcDbEntity
  8
Capa_1
 62
7
100
AcDbSpline
 70
8
 71
3
 72
8
 73
4
 74
0
 40
0
 40
0
 40
0
 40
0
 40
1
 40
1
 40
1
 40
1
 10
105.631760
 20
171.679700
 30
0.0
 10
105.561260
 20
173.725810
 30
0.0
 10
105.455370
 20
175.419140
 30
0.0
 10
105.384820
 20
175.489700
 30
0.0
  0
SPLINE
  5
106
100
AcDbEntity
  8
Capa_1
 62
7
100
AcDbSpline
 70
8
 71
3
 72
8
 73
4
 74
0
 40
0
 40
0
 40
0
 40
0
 40
1
 40
1
 40
1
 40
1
 10
105.384820
 20
175.489700
 30
0.0
 10
105.314220
 20
175.560200
 30
0.0
 10
104.467600
 20
175.383860
 30
0.0
 10
103.515100
 20
175.101640
 30
0.0
  0
SPLINE
  5
107
100
AcDbEntity
  8
Capa_1
 62
7
100
AcDbSpline
 70
8
 71
3
 72
8
 73
4
 74
0
 40
0
 40
0
 40
0
 40
0
 40
1
 40
1
 40
1
 40
1
 10
103.515100
 20
175.101640
 30
0.0
 10
100.763430
 20
174.254970
 30
0.0
 10
97.835373
 20
175.242750
 30
0.0
 10
97.094540
 20
177.183030
 30
0.0
  0
SPLINE
  5
108
100
AcDbEntity
  8
Capa_1
 62
7
100
AcDbSpline
 70
8
 71
3
 72
8
 73
4
 74
0
 40
0
 40
0
 40
0
 40
0
 40
1
 40
1
 40
1
 40
1
 10
97.094540
 20
177.183030
 30
0.0
 10
96.882873
 20
177.676920
 30
0.0
 10
96.741762
 20
181.239970
 30
0.0
 10
96.741762
 20
185.085250
 30
0.0
  0
SPLINE
  5
109
100
AcDbEntity
  8
Capa_1
 62
7
100
AcDbSpline
 70
8
 71
3
 72
8
 73
4
 74
0
 40
0
 40
0
 40
0
 40
0
 40
1
 40
1
 40
1
 40
1
 10
96.741762
 20
185.085250
 30
0.0
 10
96.741762
 20
191.117750
 30
0.0
 10
96.812322
 20
192.105530
 30
0.0
 10
97.306206
 20
192.281920
 30
0.0
  0
SPLINE
  5
10a
100
AcDbEntity
  8
Capa_1
 62
7
100
AcDbSpline
 70
8
 71
3
 72
8
 73
4
 74
0
 40
0
 40
0
 40
0
 40
0
 40
1
 40
1
 40
1
 40
1
 10
97.306206
 20
192.281920
 30
0.0
 10
97.623706
 20
192.387750
 30
0.0
 10
99.669818
 20
192.493590
 30
0.0
 10
101.892320
 20
192.493590
 30
0.0
  0
LWPOLYLINE
  5
10b
100
AcDbEntity
  8
Capa_1
 62
7
100
AcDbPolyline
 90
3
 70
0
 10
101.151480
 20
167.975530
 30
0.0
 10
105.737600
 20
167.975530
 30
0.0
 10
105.631760
 20
171.679700
 30
0.0
  0
SPLINE
  5
10c
100
AcDbEntity
  8
Capa_1
 62
7
100
AcDbSpline
 70
8
 71
3
 72
8
 73
4
 74
0
 40
0
 40
0
 40
0
 40
0
 40
1
 40
1
 40
1
 40
1
 10
101.363150
 20
199.549141
 30
0.0
 10
97.553151
 20
199.549141
 30
0.0
 10
96.777040
 20
199.654975
 30
0.0
 10
96.600651
 20
200.113586
 30
0.0
  0
SPLINE
  5
10d
100
AcDbEntity
  8
Capa_1
 62
7
100
AcDbSpline
 70
8
 71
3
 72
8
 73
4
 74
0
 40
0
 40
0
 40
0
 40
0
 40
1
 40
1
 40
1
 40
1
 10
96.600651
 20
200.113586
 30
0.0
 10
96.494818
 20
200.431086
 30
0.0
 10
96.388984
 20
202.230253
 30
0.0
 10
96.388984
 20
204.170531
 30
0.0
  0
SPLINE
  5
10e
100
AcDbEntity
  8
Capa_1
 62
7
100
AcDbSpline
 70
8
 71
3
 72
8
 73
4
 74
0
 40
0
 40
0
 40
0
 40
0
 40
1
 40
1
 40
1
 40
1
 10
96.388984
 20
204.170531
 30
0.0
 10
96.388984
 20
206.957475
 30
0.0
 10
96.283151
 20
207.663031
 30
0.0
 10
95.895095
 20
207.663031
 30
0.0
  0
SPLINE
  5
10f
100
AcDbEntity
  8
Capa_1
 62
7
100
AcDbSpline
 70
8
 71
3
 72
8
 73
4
 74
0
 40
0
 40
0
 40
0
 40
0
 40
1
 40
1
 40
1
 40
1
 10
95.895095
 20
207.663031
 30
0.0
 10
95.612873
 20
207.663031
 30
0.0
 10
92.367317
 20
204.523308
 30
0.0
 10
88.663150
 20
200.713308
 30
0.0
  0
LWPOLYLINE
  5
110
100
AcDbEntity
  8
Capa_1
 62
7
100
AcDbPolyline
 90
5
 70
0
 10
101.892320
 20
192.493590
 30
0.0
 10
105.913980
 20
192.493590
 30
0.0
 10
105.913980
 20
196.021360
 30
0.0
 10
105.913980
 20
199.549141
 30
0.0
 10
101.363150
 20
199.549141
 30
0.0
  0
SPLINE
  5
111
100
AcDbEntity
  8
Capa_1
 62
7
100
AcDbSpline
 70
8
 71
3
 72
8
 73
4
 74
0
 40
0
 40
0
 40
0
 40
0
 40
1
 40
1
 40
1
 40
1
 10
139.639540
 20
200.219419
 30
0.0
 10
135.617880
 20
199.231641
 30
0.0
 10
131.243430
 20
195.492200
 30
0.0
 10
129.232600
 20
191.364700
 30
0.0
  0
SPLINE
  5
112
100
AcDbEntity
  8
Capa_1
 62
7
100
AcDbSpline
 70
8
 71
3
 72
8
 73
4
 74
0
 40
0
 40
0
 40
0
 40
0
 40
1
 40
1
 40
1
 40
1
 10
129.232600
 20
191.364700
 30
0.0
 10
127.786210
 20
188.366090
 30
0.0
 10
127.186490
 20
183.991640
 30
0.0
 10
127.750930
 20
180.675530
 30
0.0
  0
SPLINE
  5
113
100
AcDbEntity
  8
Capa_1
 62
7
100
AcDbSpline
 70
8
 71
3
 72
8
 73
4
 74
0
 40
0
 40
0
 40
0
 40
0
 40
1
 40
1
 40
1
 40
1
 10
127.750930
 20
180.675530
 30
0.0
 10
128.773990
 20
174.748860
 30
0.0
 10
133.183710
 20
169.915810
 30
0.0
 10
139.145650
 20
168.116640
 30
0.0
  0
SPLINE
  5
114
100
AcDbEntity
  8
Capa_1
 62
7
100
AcDbSpline
 70
8
 71
3
 72
8
 73
4
 74
0
 40
0
 40
0
 40
0
 40
0
 40
1
 40
1
 40
1
 40
1
 10
139.145650
 20
168.116640
 30
0.0
 10
141.191760
 20
167.481640
 30
0.0
 10
142.214820
 20
167.375810
 30
0.0
 10
144.860650
 20
167.552190
 30
0.0
  0
SPLINE
  5
115
100
AcDbEntity
  8
Capa_1
 62
7
100
AcDbSpline
 70
8
 71
3
 72
8
 73
4
 74
0
 40
0
 40
0
 40
0
 40
0
 40
1
 40
1
 40
1
 40
1
 10
144.860650
 20
167.552190
 30
0.0
 10
148.776490
 20
167.763860
 30
0.0
 10
151.140100
 20
168.610530
 30
0.0
 10
154.456210
 20
170.938860
 30
0.0
  0
SPLINE
  5
116
100
AcDbEntity
  8
Capa_1
 62
7
100
AcDbSpline
 70
8
 71
3
 72
8
 73
4
 74
0
 40
0
 40
0
 40
0
 40
0
 40
1
 40
1
 40
1
 40
1
 10
154.456210
 20
170.938860
 30
0.0
 10
158.195650
 20
173.549420
 30
0.0
 10
158.195650
 20
173.443580
 30
0.0
 10
155.585100
 20
175.524970
 30
0.0
  0
SPLINE
  5
117
100
AcDbEntity
  8
Capa_1
 62
7
100
AcDbSpline
 70
8
 71
3
 72
8
 73
4
 74
0
 40
0
 40
0
 40
0
 40
0
 40
1
 40
1
 40
1
 40
1
 10
155.585100
 20
175.524970
 30
0.0
 10
152.727600
 20
177.818030
 30
0.0
 10
152.127880
 20
177.994420
 30
0.0
 10
150.646210
 20
176.830250
 30
0.0
  0
SPLINE
  5
118
100
AcDbEntity
  8
Capa_1
 62
7
100
AcDbSpline
 70
8
 71
3
 72
8
 73
4
 74
0
 40
0
 40
0
 40
0
 40
0
 40
1
 40
1
 40
1
 40
1
 10
150.646210
 20
176.830250
 30
0.0
 10
146.377600
 20
173.584700
 30
0.0
 10
140.944820
 20
173.725810
 30
0.0
 10
137.522880
 20
177.112470
 30
0.0
  0
SPLINE
  5
119
100
AcDbEntity
  8
Capa_1
 62
7
100
AcDbSpline
 70
8
 71
3
 72
8
 73
4
 74
0
 40
0
 40
0
 40
0
 40
0
 40
1
 40
1
 40
1
 40
1
 10
137.522880
 20
177.112470
 30
0.0
 10
135.900100
 20
178.770530
 30
0.0
 10
134.982880
 20
180.428580
 30
0.0
 10
135.617880
 20
180.675530
 30
0.0
  0
SPLINE
  5
11a
100
AcDbEntity
  8
Capa_1
 62
7
100
AcDbSpline
 70
8
 71
3
 72
8
 73
4
 74
0
 40
0
 40
0
 40
0
 40
0
 40
1
 40
1
 40
1
 40
1
 10
135.617880
 20
180.675530
 30
0.0
 10
135.864820
 20
180.781360
 30
0.0
 10
141.332880
 20
180.887200
 30
0.0
 10
147.718150
 20
180.922470
 30
0.0
  0
LWPOLYLINE
  5
11b
100
AcDbEntity
  8
Capa_1
 62
7
100
AcDbPolyline
 90
1
 70
1
 10
88.663150
 20
200.713308
 30
0.0
  0
SPLINE
  5
11c
100
AcDbEntity
  8
Capa_1
 62
7
100
AcDbSpline
 70
8
 71
3
 72
8
 73
4
 74
0
 40
0
 40
0
 40
0
 40
0
 40
1
 40
1
 40
1
 40
1
 10
159.465650
 20
183.497750
 30
0.0
 10
159.783150
 20
190.588590
 30
0.0
 10
156.678710
 20
196.021360
 30
0.0
 10
150.575650
 20
199.055252
 30
0.0
  0
SPLINE
  5
11d
100
AcDbEntity
  8
Capa_1
 62
7
100
AcDbSpline
 70
8
 71
3
 72
8
 73
4
 74
0
 40
0
 40
0
 40
0
 40
0
 40
1
 40
1
 40
1
 40
1
 10
150.575650
 20
199.055252
 30
0.0
 10
148.106210
 20
200.254697
 30
0.0
 10
147.612320
 20
200.360530
 30
0.0
 10
144.437320
 20
200.466364
 30
0.0
  0
SPLINE
  5
11e
100
AcDbEntity
  8
Capa_1
 62
7
100
AcDbSpline
 70
8
 71
3
 72
8
 73
4
 74
0
 40
0
 40
0
 40
0
 40
0
 40
1
 40
1
 40
1
 40
1
 10
144.437320
 20
200.466364
 30
0.0
 10
142.567600
 20
200.536914
 30
0.0
 10
140.415650
 20
200.431084
 30
0.0
 10
139.639540
 20
200.219419
 30
0.0
  0
LWPOLYLINE
  5
11f
100
AcDbEntity
  8
Capa_1
 62
7
100
AcDbPolyline
 90
3
 70
0
 10
147.718150
 20
180.922470
 30
0.0
 10
159.359820
 20
181.028310
 30
0.0
 10
159.465650
 20
183.497750
 30
0.0
  0
SPLINE
  5
120
100
AcDbEntity
  8
Capa_1
 62
7
100
AcDbSpline
 70
8
 71
3
 72
8
 73
4
 74
0
 40
0
 40
0
 40
0
 40
0
 40
1
 40
1
 40
1
 40
1
 10
146.271770
 20
193.481360
 30
0.0
 10
147.894540
 20
192.987470
 30
0.0
 10
151.775100
 20
189.494970
 30
0.0
 10
151.775100
 20
188.507200
 30
0.0
  0
SPLINE
  5
121
100
AcDbEntity
  8
Capa_1
 62
7
100
AcDbSpline
 70
8
 71
3
 72
8
 73
4
 74
0
 40
0
 40
0
 40
0
 40
0
 40
1
 40
1
 40
1
 40
1
 10
151.775100
 20
188.507200
 30
0.0
 10
151.775100
 20
187.978030
 30
0.0
 10
151.069540
 20
187.907470
 30
0.0
 10
144.049260
 20
187.907470
 30
0.0
  0
SPLINE
  5
122
100
AcDbEntity
  8
Capa_1
 62
7
100
AcDbSpline
 70
8
 71
3
 72
8
 73
4
 74
0
 40
0
 40
0
 40
0
 40
0
 40
1
 40
1
 40
1
 40
1
 10
144.049260
 20
187.907470
 30
0.0
 10
139.145650
 20
187.907470
 30
0.0
 10
136.217600
 20
188.048590
 30
0.0
 10
136.076490
 20
188.260250
 30
0.0
  0
SPLINE
  5
123
100
AcDbEntity
  8
Capa_1
 62
7
100
AcDbSpline
 70
8
 71
3
 72
8
 73
4
 74
0
 40
0
 40
0
 40
0
 40
0
 40
1
 40
1
 40
1
 40
1
 10
136.076490
 20
188.260250
 30
0.0
 10
135.476760
 20
189.212750
 30
0.0
 10
138.722320
 20
192.528860
 30
0.0
 10
141.262320
 20
193.551920
 30
0.0
  0
SPLINE
  5
124
100
AcDbEntity
  8
Capa_1
 62
7
100
AcDbSpline
 70
8
 71
3
 72
8
 73
4
 74
0
 40
0
 40
0
 40
0
 40
0
 40
1
 40
1
 40
1
 40
1
 10
141.262320
 20
193.551920
 30
0.0
 10
142.426490
 20
194.010530
 30
0.0
 10
144.578430
 20
193.975250
 30
0.0
 10
146.271770
 20
193.481320
 30
0.0
  0
LWPOLYLINE
  5
125
100
AcDbEntity
  8
Capa_1
 62
7
100
AcDbPolyline
 90
1
 70
1
 10
139.639540
 20
200.219419
 30
0.0
  0
SPLINE
  5
126
100
AcDbEntity
  8
Capa_1
 62
7
100
AcDbSpline
 70
8
 71
3
 72
8
 73
4
 74
0
 40
0
 40
0
 40
0
 40
0
 40
1
 40
1
 40
1
 40
1
 10
65.238704
 20
199.901919
 30
0.0
 10
63.721760
 20
199.513864
 30
0.0
 10
61.252315
 20
198.314419
 30
0.0
 10
60.934815
 20
197.785252
 30
0.0
  0
SPLINE
  5
127
100
AcDbEntity
  8
Capa_1
 62
7
100
AcDbSpline
 70
8
 71
3
 72
8
 73
4
 74
0
 40
0
 40
0
 40
0
 40
0
 40
1
 40
1
 40
1
 40
1
 10
60.934815
 20
197.785252
 30
0.0
 10
60.511482
 20
197.079697
 30
0.0
 10
60.052871
 20
197.432475
 30
0.0
 10
60.052871
 20
198.490808
 30
0.0
  0
LWPOLYLINE
  5
128
100
AcDbEntity
  8
Capa_1
 62
7
100
AcDbPolyline
 90
1
 70
1
 10
146.271770
 20
193.481320
 30
0.0
  0
SPLINE
  5
129
100
AcDbEntity
  8
Capa_1
 62
7
100
AcDbSpline
 70
8
 71
3
 72
8
 73
4
 74
0
 40
0
 40
0
 40
0
 40
0
 40
1
 40
1
 40
1
 40
1
 10
52.609257
 20
184.379700
 30
0.0
 10
52.573977
 20
176.018860
 30
0.0
 10
52.538707
 20
168.998580
 30
0.0
 10
52.503424
 20
168.786920
 30
0.0
  0
SPLINE
  5
12a
100
AcDbEntity
  8
Capa_1
 62
7
100
AcDbSpline
 70
8
 71
3
 72
8
 73
4
 74
0
 40
0
 40
0
 40
0
 40
0
 40
1
 40
1
 40
1
 40
1
 10
52.503424
 20
168.786920
 30
0.0
 10
52.468144
 20
168.434140
 30
0.0
 10
53.455924
 20
168.328310
 30
0.0
 10
56.348702
 20
168.328310
 30
0.0
  0
LWPOLYLINE
  5
12b
100
AcDbEntity
  8
Capa_1
 62
7
100
AcDbPolyline
 90
5
 70
0
 10
60.052871
 20
198.490808
 30
0.0
 10
60.052871
 20
199.549141
 30
0.0
 10
56.348704
 20
199.549141
 30
0.0
 10
52.644537
 20
199.549141
 30
0.0
 10
52.609257
 20
184.379700
 30
0.0
  0
SPLINE
  5
12c
100
AcDbEntity
  8
Capa_1
 62
7
100
AcDbSpline
 70
8
 71
3
 72
8
 73
4
 74
0
 40
0
 40
0
 40
0
 40
0
 40
1
 40
1
 40
1
 40
1
 10
60.405647
 20
178.558860
 30
0.0
 10
60.511480
 20
185.614420
 30
0.0
 10
60.723147
 20
189.036360
 30
0.0
 10
61.005369
 20
189.530250
 30
0.0
  0
SPLINE
  5
12d
100
AcDbEntity
  8
Capa_1
 62
7
100
AcDbSpline
 70
8
 71
3
 72
8
 73
4
 74
0
 40
0
 40
0
 40
0
 40
0
 40
1
 40
1
 40
1
 40
1
 10
61.005369
 20
189.530250
 30
0.0
 10
61.252313
 20
189.953590
 30
0.0
 10
61.993147
 20
190.764970
 30
0.0
 10
62.663425
 20
191.364700
 30
0.0
  0
SPLINE
  5
12e
100
AcDbEntity
  8
Capa_1
 62
7
100
AcDbSpline
 70
8
 71
3
 72
8
 73
4
 74
0
 40
0
 40
0
 40
0
 40
0
 40
1
 40
1
 40
1
 40
1
 10
62.663425
 20
191.364700
 30
0.0
 10
66.050091
 20
194.328030
 30
0.0
 10
71.377036
 20
193.551920
 30
0.0
 10
73.423147
 20
189.847750
 30
0.0
  0
SPLINE
  5
12f
100
AcDbEntity
  8
Capa_1
 62
7
100
AcDbSpline
 70
8
 71
3
 72
8
 73
4
 74
0
 40
0
 40
0
 40
0
 40
0
 40
1
 40
1
 40
1
 40
1
 10
73.423147
 20
189.847750
 30
0.0
 10
73.881759
 20
188.965810
 30
0.0
 10
74.022870
 20
187.166640
 30
0.0
 10
74.163981
 20
178.382470
 30
0.0
  0
LWPOLYLINE
  5
130
100
AcDbEntity
  8
Capa_1
 62
7
100
AcDbPolyline
 90
3
 70
0
 10
56.348702
 20
168.328310
 30
0.0
 10
60.229258
 20
168.328310
 30
0.0
 10
60.405647
 20
178.558860
 30
0.0
  0
SPLINE
  5
131
100
AcDbEntity
  8
Capa_1
 62
7
100
AcDbSpline
 70
8
 71
3
 72
8
 73
4
 74
0
 40
0
 40
0
 40
0
 40
0
 40
1
 40
1
 40
1
 40
1
 10
77.691759
 20
167.904930
 30
0.0
 10
79.526203
 20
167.869630
 30
0.0
 10
81.184259
 20
167.975530
 30
0.0
 10
81.395926
 20
168.151880
 30
0.0
  0
SPLINE
  5
132
100
AcDbEntity
  8
Capa_1
 62
7
100
AcDbSpline
 70
8
 71
3
 72
8
 73
4
 74
0
 40
0
 40
0
 40
0
 40
0
 40
1
 40
1
 40
1
 40
1
 10
81.395926
 20
168.151880
 30
0.0
 10
81.607592
 20
168.328270
 30
0.0
 10
81.748703
 20
172.491040
 30
0.0
 10
81.748703
 20
179.687710
 30
0.0
  0
LWPOLYLINE
  5
133
100
AcDbEntity
  8
Capa_1
 62
7
100
AcDbPolyline
 90
3
 70
0
 10
74.163981
 20
178.382470
 30
0.0
 10
74.340370
 20
167.975530
 30
0.0
 10
77.691759
 20
167.904930
 30
0.0
  0
SPLINE
  5
134
100
AcDbEntity
  8
Capa_1
 62
7
100
AcDbSpline
 70
8
 71
3
 72
8
 73
4
 74
0
 40
0
 40
0
 40
0
 40
0
 40
1
 40
1
 40
1
 40
1
 10
80.796203
 20
192.916880
 30
0.0
 10
79.596759
 20
195.492160
 30
0.0
 10
77.374259
 20
197.608823
 30
0.0
 10
74.516759
 20
198.949379
 30
0.0
  0
SPLINE
  5
135
100
AcDbEntity
  8
Capa_1
 62
7
100
AcDbSpline
 70
8
 71
3
 72
8
 73
4
 74
0
 40
0
 40
0
 40
0
 40
0
 40
1
 40
1
 40
1
 40
1
 10
74.516759
 20
198.949379
 30
0.0
 10
72.682314
 20
199.831324
 30
0.0
 10
71.729814
 20
200.042990
 30
0.0
 10
69.401480
 20
200.113546
 30
0.0
  0
SPLINE
  5
136
100
AcDbEntity
  8
Capa_1
 62
7
100
AcDbSpline
 70
8
 71
3
 72
8
 73
4
 74
0
 40
0
 40
0
 40
0
 40
0
 40
1
 40
1
 40
1
 40
1
 10
69.401480
 20
200.113546
 30
0.0
 10
67.849258
 20
200.184096
 30
0.0
 10
65.979536
 20
200.078266
 30
0.0
 10
65.238702
 20
199.901879
 30
0.0
  0
LWPOLYLINE
  5
137
100
AcDbEntity
  8
Capa_1
 62
7
100
AcDbPolyline
 90
3
 70
0
 10
81.748703
 20
179.687710
 30
0.0
 10
81.748703
 20
190.906050
 30
0.0
 10
80.796203
 20
192.916880
 30
0.0
  0
SPLINE
  5
138
100
AcDbEntity
  8
Capa_1
 62
7
100
AcDbSpline
 70
8
 71
3
 72
8
 73
4
 74
0
 40
0
 40
0
 40
0
 40
0
 40
1
 40
1
 40
1
 40
1
 10
119.848710
 20
198.843586
 30
0.0
 10
118.755100
 20
198.279141
 30
0.0
 10
117.767320
 20
197.785252
 30
0.0
 10
117.696760
 20
197.785252
 30
0.0
  0
SPLINE
  5
139
100
AcDbEntity
  8
Capa_1
 62
7
100
AcDbSpline
 70
8
 71
3
 72
8
 73
4
 74
0
 40
0
 40
0
 40
0
 40
0
 40
1
 40
1
 40
1
 40
1
 10
117.696760
 20
197.785252
 30
0.0
 10
117.626260
 20
197.785252
 30
0.0
 10
117.555650
 20
198.173308
 30
0.0
 10
117.555650
 20
198.667197
 30
0.0
  0
LWPOLYLINE
  5
13a
100
AcDbEntity
  8
Capa_1
 62
7
100
AcDbPolyline
 90
1
 70
1
 10
65.238702
 20
199.901879
 30
0.0
  0
SPLINE
  5
13b
100
AcDbEntity
  8
Capa_1
 62
7
100
AcDbSpline
 70
8
 71
3
 72
8
 73
4
 74
0
 40
0
 40
0
 40
0
 40
0
 40
1
 40
1
 40
1
 40
1
 10
110.217830
 20
167.975530
 30
0.0
 10
110.676450
 20
167.869690
 30
0.0
 10
112.299220
 20
167.799140
 30
0.0
 10
113.851450
 20
167.869690
 30
0.0
  0
LWPOLYLINE
  5
13c
100
AcDbEntity
  8
Capa_1
 62
7
100
AcDbPolyline
 90
7
 70
0
 10
117.555650
 20
198.667197
 30
0.0
 10
117.555650
 20
199.584419
 30
0.0
 10
113.604540
 20
199.478586
 30
0.0
 10
109.618150
 20
199.372752
 30
0.0
 10
109.512320
 20
183.779970
 30
0.0
 10
109.441720
 20
168.151920
 30
0.0
 10
110.217830
 20
167.975530
 30
0.0
  0
SPLINE
  5
13d
100
AcDbEntity
  8
Capa_1
 62
7
100
AcDbSpline
 70
8
 71
3
 72
8
 73
4
 74
0
 40
0
 40
0
 40
0
 40
0
 40
1
 40
1
 40
1
 40
1
 10
118.084780
 20
189.353860
 30
0.0
 10
119.601720
 20
191.505810
 30
0.0
 10
122.282830
 20
192.846360
 30
0.0
 10
124.999220
 20
192.846360
 30
0.0
  0
LWPOLYLINE
  5
13e
100
AcDbEntity
  8
Capa_1
 62
7
100
AcDbPolyline
 90
5
 70
0
 10
113.851450
 20
167.869690
 30
0.0
 10
116.673670
 20
167.975530
 30
0.0
 10
116.850060
 20
177.923860
 30
0.0
 10
117.026450
 20
187.836920
 30
0.0
 10
118.084780
 20
189.353860
 30
0.0
  0
SPLINE
  5
13f
100
AcDbEntity
  8
Capa_1
 62
7
100
AcDbSpline
 70
8
 71
3
 72
8
 73
4
 74
0
 40
0
 40
0
 40
0
 40
0
 40
1
 40
1
 40
1
 40
1
 10
124.470060
 20
199.901919
 30
0.0
 10
122.247560
 20
199.901919
 30
0.0
 10
121.542000
 20
199.725530
 30
0.0
 10
119.848670
 20
198.843586
 30
0.0
  0
LWPOLYLINE
  5
140
100
AcDbEntity
  8
Capa_1
 62
7
100
AcDbPolyline
 90
5
 70
0
 10
124.999220
 20
192.846360
 30
0.0
 10
127.080610
 20
192.846360
 30
0.0
 10
127.080610
 20
196.374140
 30
0.0
 10
127.080610
 20
199.901919
 30
0.0
 10
124.470060
 20
199.901919
 30
0.0
  0
SPLINE
  5
141
100
AcDbEntity
  8
Capa_1
 62
7
100
AcDbSpline
 70
8
 71
3
 72
8
 73
4
 74
0
 40
0
 40
0
 40
0
 40
0
 40
1
 40
1
 40
1
 40
1
 10
109.277542
 20
158.493307
 30
0.0
 10
109.277542
 20
153.942471
 30
0.0
 10
109.171709
 20
150.203024
 30
0.0
 10
109.030597
 20
150.203024
 30
0.0
  0
SPLINE
  5
142
100
AcDbEntity
  8
Capa_1
 62
7
100
AcDbSpline
 70
8
 71
3
 72
8
 73
4
 74
0
 40
0
 40
0
 40
0
 40
0
 40
1
 40
1
 40
1
 40
1
 10
109.030597
 20
150.203024
 30
0.0
 10
108.854208
 20
150.203024
 30
0.0
 10
107.831152
 20
150.661635
 30
0.0
 10
106.737540
 20
151.226080
 30
0.0
  0
SPLINE
  5
143
100
AcDbEntity
  8
Capa_1
 62
7
100
AcDbSpline
 70
8
 71
3
 72
8
 73
4
 74
0
 40
0
 40
0
 40
0
 40
0
 40
1
 40
1
 40
1
 40
1
 10
106.737540
 20
151.226080
 30
0.0
 10
100.528648
 20
154.365804
 30
0.0
 10
92.238365
 20
151.719969
 30
0.0
 10
88.075584
 20
145.228854
 30
0.0
  0
SPLINE
  5
144
100
AcDbEntity
  8
Capa_1
 62
7
100
AcDbSpline
 70
8
 71
3
 72
8
 73
4
 74
0
 40
0
 40
0
 40
0
 40
0
 40
1
 40
1
 40
1
 40
1
 10
88.075584
 20
145.228854
 30
0.0
 10
85.888361
 20
141.806908
 30
0.0
 10
85.041693
 20
135.456904
 30
0.0
 10
86.205861
 20
131.470512
 30
0.0
  0
SPLINE
  5
145
100
AcDbEntity
  8
Capa_1
 62
7
100
AcDbSpline
 70
8
 71
3
 72
8
 73
4
 74
0
 40
0
 40
0
 40
0
 40
0
 40
1
 40
1
 40
1
 40
1
 10
86.205861
 20
131.470512
 30
0.0
 10
88.498918
 20
123.815230
 30
0.0
 10
94.813644
 20
119.017449
 30
0.0
 10
101.904482
 20
119.617171
 30
0.0
  0
SPLINE
  5
146
100
AcDbEntity
  8
Capa_1
 62
7
100
AcDbSpline
 70
8
 71
3
 72
8
 73
4
 74
0
 40
0
 40
0
 40
0
 40
0
 40
1
 40
1
 40
1
 40
1
 10
101.904482
 20
119.617171
 30
0.0
 10
104.373928
 20
119.828838
 30
0.0
 10
107.019763
 20
120.851894
 30
0.0
 10
108.078097
 20
122.016062
 30
0.0
  0
SPLINE
  5
147
100
AcDbEntity
  8
Capa_1
 62
7
100
AcDbSpline
 70
8
 71
3
 72
8
 73
4
 74
0
 40
0
 40
0
 40
0
 40
0
 40
1
 40
1
 40
1
 40
1
 10
108.078097
 20
122.016062
 30
0.0
 10
109.030597
 20
123.074396
 30
0.0
 10
109.559764
 20
122.827451
 30
0.0
 10
109.700876
 20
121.345784
 30
0.0
  0
LWPOLYLINE
  5
148
100
AcDbEntity
  8
Capa_1
 62
7
100
AcDbPolyline
 90
1
 70
1
 10
119.848670
 20
198.843586
 30
0.0
  0
SPLINE
  5
149
100
AcDbEntity
  8
Capa_1
 62
7
100
AcDbSpline
 70
8
 71
3
 72
8
 73
4
 74
0
 40
0
 40
0
 40
0
 40
0
 40
1
 40
1
 40
1
 40
1
 10
104.268094
 20
144.699687
 30
0.0
 10
105.785040
 20
144.064687
 30
0.0
 10
107.690041
 20
142.336075
 30
0.0
 10
108.466153
 20
140.924963
 30
0.0
  0
SPLINE
  5
14a
100
AcDbEntity
  8
Capa_1
 62
7
100
AcDbSpline
 70
8
 71
3
 72
8
 73
4
 74
0
 40
0
 40
0
 40
0
 40
0
 40
1
 40
1
 40
1
 40
1
 10
108.466153
 20
140.924963
 30
0.0
 10
109.277542
 20
139.302184
 30
0.0
 10
109.665598
 20
136.162460
 30
0.0
 10
109.277542
 20
133.834125
 30
0.0
  0
SPLINE
  5
14b
100
AcDbEntity
  8
Capa_1
 62
7
100
AcDbSpline
 70
8
 71
3
 72
8
 73
4
 74
0
 40
0
 40
0
 40
0
 40
0
 40
1
 40
1
 40
1
 40
1
 10
109.277542
 20
133.834125
 30
0.0
 10
108.254486
 20
127.413565
 30
0.0
 10
101.445870
 20
124.767730
 30
0.0
 10
96.612812
 20
128.930511
 30
0.0
  0
SPLINE
  5
14c
100
AcDbEntity
  8
Capa_1
 62
7
100
AcDbSpline
 70
8
 71
3
 72
8
 73
4
 74
0
 40
0
 40
0
 40
0
 40
0
 40
1
 40
1
 40
1
 40
1
 10
96.612812
 20
128.930511
 30
0.0
 10
94.460866
 20
130.764956
 30
0.0
 10
93.402532
 20
133.163847
 30
0.0
 10
93.402532
 20
136.268293
 30
0.0
  0
SPLINE
  5
14d
100
AcDbEntity
  8
Capa_1
 62
7
100
AcDbSpline
 70
8
 71
3
 72
8
 73
4
 74
0
 40
0
 40
0
 40
0
 40
0
 40
1
 40
1
 40
1
 40
1
 10
93.402532
 20
136.268293
 30
0.0
 10
93.437810
 20
140.325240
 30
0.0
 10
94.919477
 20
142.900519
 30
0.0
 10
98.165035
 20
144.417465
 30
0.0
  0
SPLINE
  5
14e
100
AcDbEntity
  8
Capa_1
 62
7
100
AcDbSpline
 70
8
 71
3
 72
8
 73
4
 74
0
 40
0
 40
0
 40
0
 40
0
 40
1
 40
1
 40
1
 40
1
 10
98.165035
 20
144.417465
 30
0.0
 10
100.211147
 20
145.405243
 30
0.0
 10
102.398371
 20
145.511077
 30
0.0
 10
104.268094
 20
144.699687
 30
0.0
  0
LWPOLYLINE
  5
14f
100
AcDbEntity
  8
Capa_1
 62
7
100
AcDbPolyline
 90
9
 70
0
 10
109.700876
 20
121.345784
 30
0.0
 10
109.806709
 20
120.040505
 30
0.0
 10
113.440322
 20
119.934672
 30
0.0
 10
117.038658
 20
119.828838
 30
0.0
 10
117.038658
 20
143.323853
 30
0.0
 10
117.038658
 20
166.783590
 30
0.0
 10
113.158100
 20
166.783590
 30
0.0
 10
109.277542
 20
166.783590
 30
0.0
 10
109.277542
 20
158.493307
 30
0.0
  0
SPLINE
  5
150
100
AcDbEntity
  8
Capa_1
 62
7
100
AcDbSpline
 70
8
 71
3
 72
8
 73
4
 74
0
 40
0
 40
0
 40
0
 40
0
 40
1
 40
1
 40
1
 40
1
 10
69.378350
 20
151.861081
 30
0.0
 10
64.404180
 20
150.061913
 30
0.0
 10
62.146401
 20
147.063300
 30
0.0
 10
62.216957
 20
142.406630
 30
0.0
  0
SPLINE
  5
151
100
AcDbEntity
  8
Capa_1
 62
7
100
AcDbSpline
 70
8
 71
3
 72
8
 73
4
 74
0
 40
0
 40
0
 40
0
 40
0
 40
1
 40
1
 40
1
 40
1
 10
62.216957
 20
142.406630
 30
0.0
 10
62.287512
 20
139.584406
 30
0.0
 10
63.522235
 20
136.973849
 30
0.0
 10
65.603626
 20
135.315792
 30
0.0
  0
SPLINE
  5
152
100
AcDbEntity
  8
Capa_1
 62
7
100
AcDbSpline
 70
8
 71
3
 72
8
 73
4
 74
0
 40
0
 40
0
 40
0
 40
0
 40
1
 40
1
 40
1
 40
1
 10
65.603626
 20
135.315792
 30
0.0
 10
67.261682
 20
134.010514
 30
0.0
 10
70.930573
 20
132.705235
 30
0.0
 10
73.929186
 20
132.387735
 30
0.0
  0
SPLINE
  5
153
100
AcDbEntity
  8
Capa_1
 62
7
100
AcDbSpline
 70
8
 71
3
 72
8
 73
4
 74
0
 40
0
 40
0
 40
0
 40
0
 40
1
 40
1
 40
1
 40
1
 10
73.929186
 20
132.387735
 30
0.0
 10
78.021411
 20
131.929124
 30
0.0
 10
79.397245
 20
129.706622
 30
0.0
 10
76.998355
 20
127.413565
 30
0.0
  0
SPLINE
  5
154
100
AcDbEntity
  8
Capa_1
 62
7
100
AcDbSpline
 70
8
 71
3
 72
8
 73
4
 74
0
 40
0
 40
0
 40
0
 40
0
 40
1
 40
1
 40
1
 40
1
 10
76.998355
 20
127.413565
 30
0.0
 10
74.528909
 20
125.085230
 30
0.0
 10
71.459740
 20
125.473286
 30
0.0
 10
68.496405
 20
128.542455
 30
0.0
  0
SPLINE
  5
155
100
AcDbEntity
  8
Capa_1
 62
7
100
AcDbSpline
 70
8
 71
3
 72
8
 73
4
 74
0
 40
0
 40
0
 40
0
 40
0
 40
1
 40
1
 40
1
 40
1
 10
68.496405
 20
128.542455
 30
0.0
 10
67.473349
 20
129.600789
 30
0.0
 10
66.520848
 20
130.447456
 30
0.0
 10
66.379737
 20
130.447456
 30
0.0
  0
SPLINE
  5
156
100
AcDbEntity
  8
Capa_1
 62
7
100
AcDbSpline
 70
8
 71
3
 72
8
 73
4
 74
0
 40
0
 40
0
 40
0
 40
0
 40
1
 40
1
 40
1
 40
1
 10
66.379737
 20
130.447456
 30
0.0
 10
65.815292
 20
130.447456
 30
0.0
 10
60.241400
 20
127.060787
 30
0.0
 10
60.241400
 20
126.708009
 30
0.0
  0
SPLINE
  5
157
100
AcDbEntity
  8
Capa_1
 62
7
100
AcDbSpline
 70
8
 71
3
 72
8
 73
4
 74
0
 40
0
 40
0
 40
0
 40
0
 40
1
 40
1
 40
1
 40
1
 10
60.241400
 20
126.708009
 30
0.0
 10
60.241400
 20
125.861342
 30
0.0
 10
64.862792
 20
121.945506
 30
0.0
 10
67.191127
 20
120.816617
 30
0.0
  0
SPLINE
  5
158
100
AcDbEntity
  8
Capa_1
 62
7
100
AcDbSpline
 70
8
 71
3
 72
8
 73
4
 74
0
 40
0
 40
0
 40
0
 40
0
 40
1
 40
1
 40
1
 40
1
 10
67.191127
 20
120.816617
 30
0.0
 10
69.413628
 20
119.758283
 30
0.0
 10
69.836962
 20
119.687727
 30
0.0
 10
73.294186
 20
119.687727
 30
0.0
  0
SPLINE
  5
159
100
AcDbEntity
  8
Capa_1
 62
7
100
AcDbSpline
 70
8
 71
3
 72
8
 73
4
 74
0
 40
0
 40
0
 40
0
 40
0
 40
1
 40
1
 40
1
 40
1
 10
73.294186
 20
119.687727
 30
0.0
 10
76.610299
 20
119.687727
 30
0.0
 10
77.210022
 20
119.793560
 30
0.0
 10
79.115023
 20
120.675505
 30
0.0
  0
SPLINE
  5
15a
100
AcDbEntity
  8
Capa_1
 62
7
100
AcDbSpline
 70
8
 71
3
 72
8
 73
4
 74
0
 40
0
 40
0
 40
0
 40
0
 40
1
 40
1
 40
1
 40
1
 10
79.115023
 20
120.675505
 30
0.0
 10
81.937247
 20
122.016062
 30
0.0
 10
84.300860
 20
124.520786
 30
0.0
 10
85.112249
 20
127.096065
 30
0.0
  0
SPLINE
  5
15b
100
AcDbEntity
  8
Capa_1
 62
7
100
AcDbSpline
 70
8
 71
3
 72
8
 73
4
 74
0
 40
0
 40
0
 40
0
 40
0
 40
1
 40
1
 40
1
 40
1
 10
85.112249
 20
127.096065
 30
0.0
 10
85.711972
 20
129.001066
 30
0.0
 10
85.711972
 20
129.212733
 30
0.0
 10
85.112249
 20
131.364679
 30
0.0
  0
SPLINE
  5
15c
100
AcDbEntity
  8
Capa_1
 62
7
100
AcDbSpline
 70
8
 71
3
 72
8
 73
4
 74
0
 40
0
 40
0
 40
0
 40
0
 40
1
 40
1
 40
1
 40
1
 10
85.112249
 20
131.364679
 30
0.0
 10
83.877526
 20
135.986071
 30
0.0
 10
79.644190
 20
138.878850
 30
0.0
 10
72.870852
 20
139.796073
 30
0.0
  0
SPLINE
  5
15d
100
AcDbEntity
  8
Capa_1
 62
7
100
AcDbSpline
 70
8
 71
3
 72
8
 73
4
 74
0
 40
0
 40
0
 40
0
 40
0
 40
1
 40
1
 40
1
 40
1
 10
72.870852
 20
139.796073
 30
0.0
 10
70.930573
 20
140.043018
 30
0.0
 10
69.413628
 20
141.277741
 30
0.0
 10
69.413628
 20
142.583019
 30
0.0
  0
SPLINE
  5
15e
100
AcDbEntity
  8
Capa_1
 62
7
100
AcDbSpline
 70
8
 71
3
 72
8
 73
4
 74
0
 40
0
 40
0
 40
0
 40
0
 40
1
 40
1
 40
1
 40
1
 10
69.413628
 20
142.583019
 30
0.0
 10
69.413628
 20
143.994131
 30
0.0
 10
71.106962
 20
145.616910
 30
0.0
 10
72.800297
 20
145.863855
 30
0.0
  0
SPLINE
  5
15f
100
AcDbEntity
  8
Capa_1
 62
7
100
AcDbSpline
 70
8
 71
3
 72
8
 73
4
 74
0
 40
0
 40
0
 40
0
 40
0
 40
1
 40
1
 40
1
 40
1
 10
72.800297
 20
145.863855
 30
0.0
 10
74.811131
 20
146.110799
 30
0.0
 10
76.469188
 20
145.264132
 30
0.0
 10
77.703911
 20
143.323853
 30
0.0
  0
SPLINE
  5
160
100
AcDbEntity
  8
Capa_1
 62
7
100
AcDbSpline
 70
8
 71
3
 72
8
 73
4
 74
0
 40
0
 40
0
 40
0
 40
0
 40
1
 40
1
 40
1
 40
1
 10
77.703911
 20
143.323853
 30
0.0
 10
78.233078
 20
142.441908
 30
0.0
 10
78.691689
 20
141.736352
 30
0.0
 10
78.726967
 20
141.736352
 30
0.0
  0
SPLINE
  5
161
100
AcDbEntity
  8
Capa_1
 62
7
100
AcDbSpline
 70
8
 71
3
 72
8
 73
4
 74
0
 40
0
 40
0
 40
0
 40
0
 40
1
 40
1
 40
1
 40
1
 10
78.726967
 20
141.736352
 30
0.0
 10
78.762245
 20
141.736352
 30
0.0
 10
79.891135
 20
142.053852
 30
0.0
 10
81.231691
 20
142.441908
 30
0.0
  0
SPLINE
  5
162
100
AcDbEntity
  8
Capa_1
 62
7
100
AcDbSpline
 70
8
 71
3
 72
8
 73
4
 74
0
 40
0
 40
0
 40
0
 40
0
 40
1
 40
1
 40
1
 40
1
 10
81.231691
 20
142.441908
 30
0.0
 10
82.572247
 20
142.829964
 30
0.0
 10
84.300860
 20
143.147464
 30
0.0
 10
85.006416
 20
143.147464
 30
0.0
  0
SPLINE
  5
163
100
AcDbEntity
  8
Capa_1
 62
7
100
AcDbSpline
 70
8
 71
3
 72
8
 73
4
 74
0
 40
0
 40
0
 40
0
 40
0
 40
1
 40
1
 40
1
 40
1
 10
85.006416
 20
143.147464
 30
0.0
 10
85.711972
 20
143.147464
 30
0.0
 10
86.382250
 20
143.288575
 30
0.0
 10
86.488083
 20
143.464964
 30
0.0
  0
SPLINE
  5
164
100
AcDbEntity
  8
Capa_1
 62
7
100
AcDbSpline
 70
8
 71
3
 72
8
 73
4
 74
0
 40
0
 40
0
 40
0
 40
0
 40
1
 40
1
 40
1
 40
1
 10
86.488083
 20
143.464964
 30
0.0
 10
86.770306
 20
143.923576
 30
0.0
 10
83.383637
 20
148.615523
 30
0.0
 10
82.007803
 20
149.638579
 30
0.0
  0
SPLINE
  5
165
100
AcDbEntity
  8
Capa_1
 62
7
100
AcDbSpline
 70
8
 71
3
 72
8
 73
4
 74
0
 40
0
 40
0
 40
0
 40
0
 40
1
 40
1
 40
1
 40
1
 10
82.007803
 20
149.638579
 30
0.0
 10
78.268356
 20
152.496081
 30
0.0
 10
73.470575
 20
153.342748
 30
0.0
 10
69.378350
 20
151.861081
 30
0.0
  0
LWPOLYLINE
  5
166
100
AcDbEntity
  8
Capa_1
 62
7
100
AcDbPolyline
 90
1
 70
1
 10
104.268094
 20
144.699687
 30
0.0
  0
SPLINE
  5
167
100
AcDbEntity
  8
Capa_1
 62
7
100
AcDbSpline
 70
8
 71
3
 72
8
 73
4
 74
0
 40
0
 40
0
 40
0
 40
0
 40
1
 40
1
 40
1
 40
1
 10
132.737279
 20
152.249136
 30
0.0
 10
124.799774
 20
150.732191
 30
0.0
 10
119.402271
 20
143.323853
 30
0.0
 10
119.966715
 20
134.680792
 30
0.0
  0
SPLINE
  5
168
100
AcDbEntity
  8
Capa_1
 62
7
100
AcDbSpline
 70
8
 71
3
 72
8
 73
4
 74
0
 40
0
 40
0
 40
0
 40
0
 40
1
 40
1
 40
1
 40
1
 10
119.966715
 20
134.680792
 30
0.0
 10
120.248938
 20
130.129956
 30
0.0
 10
121.624772
 20
127.237176
 30
0.0
 10
125.046719
 20
124.026896
 30
0.0
  0
SPLINE
  5
169
100
AcDbEntity
  8
Capa_1
 62
7
100
AcDbSpline
 70
8
 71
3
 72
8
 73
4
 74
0
 40
0
 40
0
 40
0
 40
0
 40
1
 40
1
 40
1
 40
1
 10
125.046719
 20
124.026896
 30
0.0
 10
130.726444
 20
118.770504
 30
0.0
 10
139.087283
 20
118.064948
 30
0.0
 10
145.472565
 20
122.298284
 30
0.0
  0
SPLINE
  5
16a
100
AcDbEntity
  8
Capa_1
 62
7
100
AcDbSpline
 70
8
 71
3
 72
8
 73
4
 74
0
 40
0
 40
0
 40
0
 40
0
 40
1
 40
1
 40
1
 40
1
 10
145.472565
 20
122.298284
 30
0.0
 10
147.942011
 20
123.956341
 30
0.0
 10
149.847012
 20
125.614397
 30
0.0
 10
149.847012
 20
126.073009
 30
0.0
  0
SPLINE
  5
16b
100
AcDbEntity
  8
Capa_1
 62
7
100
AcDbSpline
 70
8
 71
3
 72
8
 73
4
 74
0
 40
0
 40
0
 40
0
 40
0
 40
1
 40
1
 40
1
 40
1
 10
149.847012
 20
126.073009
 30
0.0
 10
149.847012
 20
126.355231
 30
0.0
 10
147.906733
 20
127.801621
 30
0.0
 10
145.225620
 20
129.494955
 30
0.0
  0
SPLINE
  5
16c
100
AcDbEntity
  8
Capa_1
 62
7
100
AcDbSpline
 70
8
 71
3
 72
8
 73
4
 74
0
 40
0
 40
0
 40
0
 40
0
 40
1
 40
1
 40
1
 40
1
 10
145.225620
 20
129.494955
 30
0.0
 10
144.378953
 20
130.059400
 30
0.0
 10
144.273120
 20
130.059400
 30
0.0
 10
143.108952
 20
129.177455
 30
0.0
  0
SPLINE
  5
16d
100
AcDbEntity
  8
Capa_1
 62
7
100
AcDbSpline
 70
8
 71
3
 72
8
 73
4
 74
0
 40
0
 40
0
 40
0
 40
0
 40
1
 40
1
 40
1
 40
1
 10
143.108952
 20
129.177455
 30
0.0
 10
142.438674
 20
128.683566
 30
0.0
 10
141.133395
 20
127.872177
 30
0.0
 10
140.145617
 20
127.413565
 30
0.0
  0
SPLINE
  5
16e
100
AcDbEntity
  8
Capa_1
 62
7
100
AcDbSpline
 70
8
 71
3
 72
8
 73
4
 74
0
 40
0
 40
0
 40
0
 40
0
 40
1
 40
1
 40
1
 40
1
 10
140.145617
 20
127.413565
 30
0.0
 10
137.041171
 20
125.931898
 30
0.0
 10
132.702001
 20
126.390509
 30
0.0
 10
130.479500
 20
128.436621
 30
0.0
  0
SPLINE
  5
16f
100
AcDbEntity
  8
Capa_1
 62
7
100
AcDbSpline
 70
8
 71
3
 72
8
 73
4
 74
0
 40
0
 40
0
 40
0
 40
0
 40
1
 40
1
 40
1
 40
1
 10
130.479500
 20
128.436621
 30
0.0
 10
129.315332
 20
129.530233
 30
0.0
 10
127.621998
 20
131.858568
 30
0.0
 10
127.621998
 20
132.458291
 30
0.0
  0
SPLINE
  5
170
100
AcDbEntity
  8
Capa_1
 62
7
100
AcDbSpline
 70
8
 71
3
 72
8
 73
4
 74
0
 40
0
 40
0
 40
0
 40
0
 40
1
 40
1
 40
1
 40
1
 10
127.621998
 20
132.458291
 30
0.0
 10
127.621998
 20
132.846346
 30
0.0
 10
129.773944
 20
132.916902
 30
0.0
 10
139.616450
 20
132.916902
 30
0.0
  0
LWPOLYLINE
  5
171
100
AcDbEntity
  8
Capa_1
 62
7
100
AcDbPolyline
 90
1
 70
1
 10
69.378350
 20
151.861081
 30
0.0
  0
SPLINE
  5
172
100
AcDbEntity
  8
Capa_1
 62
7
100
AcDbSpline
 70
8
 71
3
 72
8
 73
4
 74
0
 40
0
 40
0
 40
0
 40
0
 40
1
 40
1
 40
1
 40
1
 10
151.610902
 20
135.703848
 30
0.0
 10
151.610902
 20
141.136629
 30
0.0
 10
150.305623
 20
144.734965
 30
0.0
 10
147.165899
 20
147.945245
 30
0.0
  0
SPLINE
  5
173
100
AcDbEntity
  8
Capa_1
 62
7
100
AcDbSpline
 70
8
 71
3
 72
8
 73
4
 74
0
 40
0
 40
0
 40
0
 40
0
 40
1
 40
1
 40
1
 40
1
 10
147.165899
 20
147.945245
 30
0.0
 10
143.497008
 20
151.719969
 30
0.0
 10
138.205338
 20
153.307470
 30
0.0
 10
132.737279
 20
152.249136
 30
0.0
  0
LWPOLYLINE
  5
174
100
AcDbEntity
  8
Capa_1
 62
7
100
AcDbPolyline
 90
3
 70
0
 10
139.616450
 20
132.916902
 30
0.0
 10
151.610902
 20
132.916902
 30
0.0
 10
151.610902
 20
135.703848
 30
0.0
  0
SPLINE
  5
175
100
AcDbEntity
  8
Capa_1
 62
7
100
AcDbSpline
 70
8
 71
3
 72
8
 73
4
 74
0
 40
0
 40
0
 40
0
 40
0
 40
1
 40
1
 40
1
 40
1
 10
139.440061
 20
145.087743
 30
0.0
 10
140.992284
 20
144.346909
 30
0.0
 10
144.273120
 20
141.101352
 30
0.0
 10
144.096731
 20
140.536907
 30
0.0
  0
SPLINE
  5
176
100
AcDbEntity
  8
Capa_1
 62
7
100
AcDbSpline
 70
8
 71
3
 72
8
 73
4
 74
0
 40
0
 40
0
 40
0
 40
0
 40
1
 40
1
 40
1
 40
1
 10
144.096731
 20
140.536907
 30
0.0
 10
144.026175
 20
140.289962
 30
0.0
 10
141.239229
 20
140.113573
 30
0.0
 10
135.982837
 20
140.043018
 30
0.0
  0
SPLINE
  5
177
100
AcDbEntity
  8
Capa_1
 62
7
100
AcDbSpline
 70
8
 71
3
 72
8
 73
4
 74
0
 40
0
 40
0
 40
0
 40
0
 40
1
 40
1
 40
1
 40
1
 10
135.982837
 20
140.043018
 30
0.0
 10
129.350610
 20
139.972462
 30
0.0
 10
127.974776
 20
140.043018
 30
0.0
 10
127.974776
 20
140.431073
 30
0.0
  0
SPLINE
  5
178
100
AcDbEntity
  8
Capa_1
 62
7
100
AcDbSpline
 70
8
 71
3
 72
8
 73
4
 74
0
 40
0
 40
0
 40
0
 40
0
 40
1
 40
1
 40
1
 40
1
 10
127.974776
 20
140.431073
 30
0.0
 10
127.974776
 20
141.348296
 30
0.0
 10
130.938111
 20
144.311631
 30
0.0
 10
132.737279
 20
145.158299
 30
0.0
  0
SPLINE
  5
179
100
AcDbEntity
  8
Capa_1
 62
7
100
AcDbSpline
 70
8
 71
3
 72
8
 73
4
 74
0
 40
0
 40
0
 40
0
 40
0
 40
1
 40
1
 40
1
 40
1
 10
132.737279
 20
145.158299
 30
0.0
 10
134.818669
 20
146.146077
 30
0.0
 10
137.217560
 20
146.110799
 30
0.0
 10
139.440061
 20
145.087743
 30
0.0
  0
LWPOLYLINE
  5
17a
100
AcDbEntity
  8
Capa_1
 62
7
100
AcDbPolyline
 90
1
 70
1
 10
132.737279
 20
152.249136
 30
0.0
  0
LWPOLYLINE
  5
17b
100
AcDbEntity
  8
Capa_1
 62
7
100
AcDbPolyline
 90
1
 70
1
 10
139.440061
 20
145.087743
 30
0.0
  0
ENDSEC
  0
SECTION
  2
OBJECTS
  0
DICTIONARY
  5
C
330
0
100
AcDbDictionary
  3
ACAD_GROUP
350
D
  3
ACAD_MLINESTYLE
350
17
  0
DICTIONARY
  5
D
330
C
100
AcDbDictionary
  0
DICTIONARY
  5
1A
330
C
100
AcDbDictionary
  0
DICTIONARY
  5
17
330
C
100
AcDbDictionary
  3
STANDARD
350
18
  0
DICTIONARY
  5
19
330
C
100
AcDbDictionary
  0
ENDSEC
  0
EOF
